<?xml version="1.0" encoding="UTF-8"?><svg id="Layer_1" xmlns="http://www.w3.org/2000/svg" viewBox="0 0 119.88 36.12"><path d="M38.59,15.15c2.22,.78,4.29,1.43,6.29,2.23,1.12,.45,2.25,1.03,3.18,1.79,1.65,1.35,1.87,3.15,.54,4.81-.94,1.17-2.05,2.33-3.31,3.1-2.58,1.57-5.44,2.42-8.5,2.5-1.08,.03-1.83-.47-2.37-1.25-.3-.43-.5-1.17-.33-1.62,.49-1.31,1.15-2.56,2.4-3.38,.58-.38,1.16-.68,1.74-.1,.55,.55,.45,1.14-.06,1.72-.18,.2-.23,.51-.36,.81,.19,.12,.34,.3,.47,.28,2.7-.27,5.12-1.18,7.1-3.11,.6-.58,.62-1.1-.03-1.61-.37-.29-.74-.61-1.17-.76-3.14-1.15-6.31-2.24-9.73-2-.73,.05-1.45,.28-2.18,.42-.16,1.47,.74,2.37,1.22,3.39,.64,1.36,.48,2.83-.59,3.79-.91,.82-1.72,.83-2.34-.21-.65-1.09-1.16-2.29-1.54-3.51-.56-1.78-.95-3.62-1.43-5.43-.06-.22-.2-.41-.38-.75-1.71,.82-3.37,1.62-5.24,2.51,1.2,3.02,2.35,5.88,3.47,8.76,.23,.58,.53,1.22,.49,1.81-.08,1.14-1.13,1.58-2.04,.88-.45-.35-.82-.85-1.07-1.36-.49-.99-.9-2.02-1.28-3.06-.58-1.59-1.11-3.2-1.64-4.81-.41-1.23-.65-1.4-1.9-1.05-1.07,.3-2.12,.74-3.2,.94-1.18,.22-1.79,.96-2.33,1.91-.88,1.52-1.79,3.01-2.72,4.5-.47,.75-1.35,.96-2.11,.56-1.24-.65-1.8-1.76-1.29-2.86,.39-.84,.93-1.63,1.5-2.36,.56-.73,.67-1.34,.29-2.24-.85-1.99-.5-2.56,1.59-3.39,.39-.15,.79-.51,.98-.88,.43-.83,.85-1.7,1.04-2.6,.39-1.84,1.42-3.33,2.47-4.79,.84-1.18,2.87-.84,3.61,.58,.89,1.71,1.71,3.46,2.56,5.19,.2,.41,.41,.82,.7,1.4,2.29-.95,4.74-1.48,5.98-3.95,.46-.92,1.19-1.46,2.29-1.22,.73,.16,1.22-.16,1.66-.7,1.86-2.27,4.37-3.2,7.19-2.95,2.76,.25,3.59,1.69,2.87,4.41-.21,.81-.85,1.51-1.33,2.24-.31,.47-.7,.9-1.13,1.45Zm-1.06-4.19c-2.27-.31-3.43,.45-4.84,3.08,1.92-.22,3.72-1.34,4.84-3.08Zm-20.76,3.51c-.15,.03-.29,.06-.44,.08-.32,.81-.64,1.62-1.1,2.78,1.15-.23,1.88-.38,2.85-.57-.54-.94-.93-1.62-1.31-2.3Z"/><path d="M83.47,16.21c-.46,.53-.91,1.06-1.38,1.58-1.94,2.19-3.91,4.35-5.81,6.57-.98,1.14-2.35,1.54-3.64,2.02-1.42,.53-3.02-.44-3.39-1.95-.4-1.65-.69-3.33-1.08-4.98-.5-2.15-1.75-3.64-3.91-4.32-1.33-.42-2.62-1.03-4.3-.57,.55,.79,1.03,1.48,1.52,2.18,.53,.76,1.08,1.52,1.59,2.29,1.98,3.01-.11,5.9-2.15,7.24-2,1.32-4.87,1.06-6.62-.62-1.65-1.59-2.81-3.31-2.93-5.91-.16-3.36,1.44-5.84,3.01-8.39,.36-.59,1.53-.96,2.33-.97,3.43-.06,6.83,.33,9.96,1.83,2.95,1.42,4.48,4,5.22,7.11,.22,.94,.57,1.85,.98,3.14,1.51-1.36,2.8-2.43,3.98-3.6,1.44-1.44,2.79-2.97,4.16-4.48,.83-.91,1.57-1.91,2.45-2.76,1.37-1.33,2.8-1.09,3.41,.67,.52,1.53,.74,3.17,1,4.78,.27,1.72,.32,3.49,.7,5.18,.21,.92,.77,1.82,2.04,1.88,.41,.02,1.09,.54,1.13,.89,.06,.47-.27,1.12-.64,1.48-1.54,1.47-3.74,1.14-4.85-.9-.88-1.62-1.57-3.38-1.7-5.3-.09-1.32-.32-2.62-.49-3.93-.19-.05-.38-.09-.57-.14Zm-26.72-1.13c-1.32,.97-1.62,2.13-1.86,3.26-.34,1.63,.76,3.77,2.16,4.42,1.1,.51,2.1,.4,2.75-.32,.72-.79,.78-1.59,.11-2.71-.5-.85-1.09-1.65-1.64-2.46-.48-.7-.97-1.4-1.53-2.19Z"/><path d="M98.04,11.68c-.38-.07-.77-.16-1.15-.22-1.32-.2-2.64-.43-3.97-.56-.69-.07-1.39,.08-2.09,.07-.43,0-.91-.01-1.26-.21-1.3-.75-1.57-3.33-.48-4.33,.55-.5,1.16-.71,1.93-.34,3.9,1.87,8.12,2.22,12.33,2.47,2.33,.14,4.67,.06,7,.09,1.02,.01,2.26,1.21,2.21,2.13-.04,.84-1.42,1.95-2.34,1.97-1.87,.02-3.76-.08-5.59,.18-2.49,.36-2.91,.92-3.13,3.45-.29,3.41-.03,6.79,.76,10.13,.12,.51,.23,1.04,.2,1.55-.04,.84-1.15,1.83-2.02,1.92-.69,.07-1.38-.52-1.69-1.49-.13-.39-.26-.79-.29-1.19-.31-4.14-.64-8.28-.85-12.42-.05-1.01,.28-2.05,.44-3.17Z"/></svg>