<?xml version="1.0" encoding="UTF-8"?><svg id="Layer_1" xmlns="http://www.w3.org/2000/svg" viewBox="0 0 134.28 147.58"><path d="M70.99,34.44c-5.45,.37-10.64,1.53-15.79,2.9-1.21,.32-2.43,.59-3.64,.91-1.59,.42-3.1,.91-4.18,2.36-.84,1.13-2.34,1.37-3.38,.67-.82-.56-1.43-1.84-1.57-2.88-.2-1.45,1.13-2.19,2.28-2.68,2.22-.94,4.46-1.94,6.79-2.49,5.63-1.35,11.28-2.72,17-3.56,2.98-.43,6.14,.14,9.2,.48,2.1,.23,4.15,.88,6.24,1.29,5.51,1.07,10.46,3.7,15.14,6.48,4.64,2.76,8.15,7.09,10.39,12.2,.26,.58,.27,1.32,.24,1.97-.14,2.7-.03,5.46-.6,8.08-.61,2.8-1.66,5.56-2.89,8.17-2.01,4.28-4.08,8.57-6.55,12.6-2.77,4.51-5.45,9.16-9.34,12.86-4.26,4.06-7.93,8.77-12.85,12.13-6.79,4.63-13.64,9.16-21.78,11.17-5.81,1.43-11.67,1.36-17.1-.93-4.53-1.91-8.36-4.91-10.22-10.05-2.04-5.65-1.94-11.13-.49-16.8,1.6-6.3,3.83-12.36,6.47-18.28,2.68-5.99,6.71-11.07,11.01-15.92,2.3-2.59,5.02-4.82,7.54-7.22,4.69-4.48,10.54-5.4,16.66-5.38,1.93,0,2.57,1.05,2.05,2.88-.56,1.96-2.37,3.37-4.23,3.14-4.88-.6-8.68,1.51-11.86,4.88-3.65,3.87-7.12,7.89-10.64,11.88-.69,.79-1.25,1.71-1.8,2.6-1.16,1.89-2.38,3.74-3.37,5.71-1.03,2.05-1.98,4.18-2.66,6.37-.68,2.2-1.31,4.38-2.16,6.55-1.08,2.75-1.43,5.78-2.08,8.7-.06,.28-.08,.59-.03,.87,.35,2.16,.76,4.31,1.09,6.47,.71,4.63,4.07,7.02,7.91,8.47,4.92,1.85,10.04,1.75,15.05-.19,6.62-2.56,12.84-5.84,18.57-10.04,.47-.34,.92-.71,1.33-1.12,3.27-3.29,6.65-6.49,9.78-9.92,5.52-6.05,9.76-12.96,13.03-20.46,1.7-3.89,3.62-7.73,3.86-12.08,.08-1.35,.31-2.74,.08-4.05-.34-1.96-.67-4.08-3.16-4.69-.97-.24-1.21-1.02-1.4-1.97-.16-.77-.66-1.6-1.26-2.13-4.98-4.39-10.82-7.01-17.34-8.16-3.12-.55-6.23-1.17-9.34-1.76Z"/></svg>