<?xml version="1.0" encoding="UTF-8"?><svg id="Layer_1" xmlns="http://www.w3.org/2000/svg" viewBox="0 0 225.22 42.4"><path d="M144.82,31.32c-.26-.99-.52-2.01-.8-3.01-.14-.48-.3-.96-.51-1.41-.39-.8-.72-1.61-.85-2.51-.21-1.38-.53-2.74-.72-4.13-.21-1.56-.05-3.1,.58-4.57,.06-.13,.03-.3,.04-.51-.91-.28-1.79-.12-2.66-.06-1.82,.13-3.65,.23-5.47,.42-2.24,.23-4.46,.57-6.7,.81-.76,.08-1.55,.06-2.31-.04-.49-.07-.87-.1-1.32,.18-.52,.33-1.13,.5-1.68,.78-.55,.28-1.05,.65-1.6,.93-.51,.26-1.05,.49-1.6,.68-.84,.3-1.53,.72-1.9,1.58-.43,1.02-.19,1.96,.72,2.6,1.16,.83,2.48,.89,3.8,.73,2.61-.32,5.1-1.06,7.38-2.42,.27-.16,.54-.31,.83-.43,.51-.21,.82,.13,1.08,.48,.24,.33,.19,.69-.14,.93-.59,.44-1.17,.89-1.81,1.26-2.25,1.31-4.54,2.57-7.08,3.17-1.91,.45-3.91,.37-5.71-.49-1.46-.7-2.51-1.93-3.11-3.47-.1-.27-.14-.61-.07-.89,.18-.78,.42-1.54,.69-2.5-.67,.16-1.13,.28-1.61,.37-1.77,.36-3.55,.71-5.33,1.07-1.1,.23-1.18,.42-.83,1.5,.23,.7,.38,1.43,.58,2.13,.3,1.04,.61,2.08,.94,3.12,.33,1.06,.69,2.12,1.03,3.18,.19,.58,.07,1.08-.41,1.47-.33,.27-.67,.52-1.01,.78-.9-.21-1.24-.8-1.22-1.63,.02-.7-.19-1.29-.7-1.79-.18-.18-.32-.45-.37-.7-.22-1.02-.39-2.04-.61-3.06-.06-.3-.14-.68-.35-.85-.69-.56-.67-1.35-.8-2.11-.19-1.08-.32-1.2-1.38-.93-1.7,.43-3.38,.91-5.07,1.36-.62,.17-1.36,.09-1.74,.76-.55,.98-1.23,1.91-1.32,3.09-.08,.97-.25,1.95-.2,2.91,.09,1.7-1.29,2.24-2.42,2.14-.55-.05-1.11-.35-1.58-.67-.55-.37-.59-1.03-.34-1.69,.29-.75,.52-1.52,.78-2.29,.01-.04,.01-.08,.03-.11,.82-.92,.89-2.13,1.26-3.22,.06-.18,.17-.35,.3-.5q.86-1.02,.1-2.12c.59-.5,1.12-1.13,1.8-1.49,.83-.45,1.26-1.15,1.59-1.93,.88-2.05,2.55-3.39,4.23-4.69,.64-.5,1.46-.07,2.08,.29,1.51,.88,2.37,2.32,3.05,3.87,.44,1.01,.57,1.09,1.66,.91,.84-.14,1.7-.18,2.54-.3,1.07-.15,2.14-.31,3.21-.51,1.03-.2,2.05-.41,3.06-.7,.43-.12,.82-.4,1.19-.68,1.02-.75,2.09-1.33,3.38-1.48,.45-.05,.9-.22,1.34-.37,.8-.27,1.57-.65,2.48-.29,.51,.2,.97-.02,1.22-.6,.15-.35,.39-.7,.67-.94,.31-.26,.71-.5,1.09-.54,.73-.07,1.5-.11,2.2,.04,1.85,.4,3.71,.24,5.57,.23,1.24,0,2.48-.2,3.72-.24,1.74-.05,3.49,.02,5.23-.07,2.17-.11,4.33-.31,6.49-.53,1.11-.12,2.22-.34,3.32-.57,.83-.17,1.45,.16,1.99,.71,.42,.42,.33,1.38-.26,2.03-.46,.5-.96,.93-1.77,.95-1.2,.03-2.42,.04-3.53,.64-.16,.09-.38,.06-.57,.08-1.63,.13-2.8,1.02-3.15,2.6-.21,.94-.31,1.93-.24,2.88,.13,1.67,.42,3.32,1.08,4.88,.54,1.28,1.08,2.57,1.61,3.86,.22,.54,.03,1.01-.33,1.4-.4,.43-.85,.83-1.52,.64-.41-.11-.8-.27-1.25-.42Zm-43.57-12.36c-.4-.73-.78-1.33-1.67-1.66-.55,.69-1.11,1.37-1.8,2.23,1.36,.2,2.41,.2,3.47-.57Z"/><path d="M26.58,29.84c-1.08,.83-1.98,1.66-3.01,2.25-1.06,.61-2.22,1.12-3.4,1.46-1.8,.52-3.66,.86-5.54,.64-2.98-.35-4.99-2.01-6.02-4.81-.35-.94-.8-1.88-.72-2.92,.21-2.84,.17-5.75,2.05-8.17,1.13-1.45,3.25-2.12,4.74-1.02,1.46,1.08,1.53,1.2,.39,2.59-.07,.09-.17,.16-.32,.28-.84-.43-1.7-.17-2.32,.4-.76,.7-1.32,1.58-1.51,2.69-.22,1.31-.07,2.61,.22,3.82,.46,1.86,1.53,3.22,3.57,3.93,1.87,.65,3.61,.36,5.39,.12,.73-.1,1.39-.66,2.12-.85,1.45-.37,2.61-1.64,4.4-1.2,0-.53,.14-.98-.02-1.27-.63-1.1-.23-2.22-.02-3.27,.33-1.63,1.05-3.16,2.21-4.4,.65-.7,1.5-1.06,2.51-.97,.45,.04,.97,.06,1.36-.12,.77-.36,1.49-.32,2.27-.1,1.42,.4,2.65,1.03,3.57,2.24,.6,.79,1.29,1.52,1.99,2.22,.49,.49,.67,1.08,.64,1.7-.05,.85-.15,1.71-.4,2.52-.47,1.51-1.38,2.75-2.66,3.71-.68,.51-1.3,1.14-2.03,1.57-1.35,.8-2.88,1.03-4.38,.65-2.12-.54-3.96-1.58-5.09-3.71Zm3.11-3.76c-.07,2.27,1.42,4.03,3.16,3.95,1.86-.08,3.43-.9,4.58-2.39,.67-.87,.72-2.63-.02-3.44-.77-.85-1.66-1.61-2.58-2.3-.64-.48-1.48-.28-2.09,.28-.4,.37-.81,.73-1.24,1.06-.3,.23-.67,.37-.95,.63-.76,.69-.87,1.62-.86,2.21Z"/><path d="M57.78,23.68c.46-1.33,.9-2.48,1.26-3.66,.11-.36,.02-.79,.02-1.24,.12-.38,.22-.87,.43-1.3,.35-.73,.75-1.44,1.16-2.13,.16-.26,.41-.47,.61-.7,.98-1.15,1.39-1.21,2.9-.35-.11,.31-.12,.83-.35,.96-1.21,.7-1.33,1.97-1.66,3.09-.28,.96-.44,1.99-.46,2.99-.04,2.25-.9,4.23-1.88,6.18-.52,1.03-1.42,1.17-2.43,.67-2.05-1.02-3.35-2.78-4.71-4.5-.22-.27-.34-.67-.61-.85-1.33-.87-1.71-2.41-2.6-3.58-.25-.32-.55-.6-.82-.89-1.18,.52-1.32,1.6-1.53,2.48-.27,1.1-.11,2.31-.28,3.44-.26,1.71,.71,3.05,1.24,4.52,.52,1.45,.02,2.56-1.48,3.03-.75,.24-1.89-.39-2.09-1.22-.56-2.28-.95-4.56-.66-6.96,.2-1.68,.43-3.34,.83-4.98,.03-.11,0-.25,.06-.34,.57-.89,1.13-1.78,1.73-2.65,.19-.28,.5-.49,.73-.74,.84-.91,2.09-1.01,2.99-.15,1.04,.99,1.94,2.1,2.67,3.34,.72,1.23,1.46,2.45,2.3,3.6,.5,.68,1.19,1.22,1.84,1.77,.17,.15,.49,.12,.8,.19Z"/><path d="M77.02,15.38c-.25-.06-.4-.13-.55-.12-1.85,.1-3.69,.19-5.54,.33-1.16,.09-2.31,.27-3.46,.45-.5,.08-.81-.13-1.1-.48-.53-.64-.55-1.39-.28-2.09,.24-.63,.76-1.02,1.53-1.08,1.31-.11,2.62-.42,3.93-.45,1.5-.04,3.01,.17,4.51,.21,1.94,.05,3.88,.05,5.82,.07,1.86,.02,3.72,.05,5.56-.29,.26-.05,.54,.02,.81,.07,.68,.12,1.07,.61,.84,1.24-.24,.69-.52,1.47-1.03,1.92-.42,.37-1.24,.48-1.85,.41-1.46-.17-2.84,.23-4.25,.4-.78,.09-1.38,.7-1.75,1.42-.77,1.48-1.51,3.05-1.38,4.73,.15,1.95-.28,3.95,.54,5.87,.27,.63,.43,1.28,.86,1.85,.5,.66,.05,1.96-.72,2.22-.16,.05-.43,.05-.54-.05-.53-.45-1.11-.87-1.49-1.43-.36-.53-.57-1.2-.71-1.84-.26-1.2-.4-2.43-.64-3.64-.43-2.16,.24-4.3,.04-6.46-.02-.2,.14-.43,.26-.62,.51-.78,.67-1.63,.57-2.63Z"/><path d="M196.25,27.46c.56-.43,.92-.71,1.18-.92,1.33,.22,2.55,.44,3.77,.61,.42,.06,.9,.11,1.27-.03,.75-.28,1.5-.22,2.27-.25,.59-.03,1.16-.48,1.78-.76-.11-.35-.11-.62-.25-.76-.73-.75-1.5-1.46-2.23-2.21-.7-.73-1.34-1.51-2.05-2.23-.45-.46-.99-.83-1.49-1.24-.15-.12-.43-.27-.41-.36,.16-.92-.52-1.6-.65-2.44-.2-1.27,.58-2.14,1.15-3.07,.87-1.41,2.18-2.29,3.78-2.75,1.53-.43,3.04-.93,4.56-1.38,.25-.08,.54-.06,.81-.08,.45-.04,.91-.13,1.36-.1,.6,.04,1.2,.13,1.78,.28,.29,.07,.52,.34,.79,.48,.44,.22,.84,.45,.8,1.02-.04,.5-.85,1.3-1.33,1.34-.72,.06-1.44,.09-2.16,.16-1.81,.17-3.63,.32-5.3,1.1-.59,.28-1.16,.63-1.67,1.03-.93,.72-1,1.7-.41,2.74,.72,1.28,1.82,2.18,2.89,3.12,1.08,.95,2.16,1.9,3.17,2.91,.93,.94,.98,2.54,.1,3.76-1.01,1.4-2.23,2.51-4.16,2.29-.38-.04-.78,0-1.16,.07-2.29,.4-4.4-.33-6.47-1.13-.55-.21-1-.7-1.71-1.21Z"/><path d="M180.09,15.08c.73,.33,1.4,.7,1.71,1.5,.18,.47,.46,.9,.04,1.41-.12,.14-.09,.45-.06,.67,.2,1.3,.51,2.59,.6,3.9,.07,1.03,.52,1.88,.98,2.71,.77,1.37,1.86,1.44,2.91,.26,.36-.4,.66-.87,.93-1.33,.78-1.33,1.73-2.59,2.14-4.09,.2-.74,.45-1.51,.47-2.29,.02-1.11,.6-2,1-2.96,.28-.67,.97-.88,1.65-.94,.84-.08,1.49,.83,1.07,1.61-1.03,1.93-1.18,4.1-1.83,6.12-.65,2.05-1.4,4.14-2.84,5.83-.73,.85-1.56,1.62-2.34,2.43-.05,.05-.12,.1-.19,.14-1.2,.72-3.5,.18-4.28-1.01-.02-.03-.03-.08-.06-.1-1.03-.74-1.36-1.94-1.9-2.98-.48-.92-.75-1.95-1.03-2.96-.38-1.38-.66-2.79-1.03-4.17-.31-1.14,.31-2.76,1.34-3.36,.23-.13,.48-.24,.72-.37Z"/></svg>