<?xml version="1.0" encoding="UTF-8"?><svg id="Layer_1" xmlns="http://www.w3.org/2000/svg" viewBox="0 0 176.25 211.03"><path d="M148.45,170.99c-1.8,2.68-4.53,2.44-7.2,2.39-3.44-.06-6.88-.15-10.32-.19-.95-.01-1.9,.06-2.84,.19-3.21,.45-6.4,1.13-9.62,1.38-7.71,.59-15.41,.94-23.05,2.36-3.33,.62-6.86,.21-10.3,.09-12.05-.4-23.77,1.86-35.48,4.24-5.7,1.16-11.38,2.39-17.09,3.5-1.58,.31-3.23,.45-4.84,.43-1.89-.02-3.48-1.52-3.17-3.31,.91-5.26-.32-10.48-.04-15.73,.56-10.4,.88-20.81,1.64-31.19,.55-7.51,1.48-15.01,2.52-22.47,1-7.18,2.3-14.32,3.58-21.45,.17-.92,.79-2.04,1.55-2.52,1.25-.79,1.67-1.8,2.15-3.12,1.86-5.12,4.27-9.87,8.38-13.73,2.33-2.19,3.94-5.14,5.92-7.71,3.88-5.06,7.89-10.02,11.67-15.15,2.65-3.6,5-7.44,7.51-11.15,2.3-3.39,4.54-6.83,7.56-9.67,1.97-1.85,4.45-1.92,6.59-.2,4.79,3.85,8.76,8.48,12.82,13.04,1.78,2,3.77,3.8,5.63,5.72,2.25,2.32,4.47,4.67,6.69,7.02,.33,.35,.72,.69,.89,1.12,2.11,5.12,6.47,8.66,9.33,13.27,1.49,2.39,3.6,4.42,5.54,6.51,2.8,2.99,5.7,5.89,8.56,8.83,1.25,1.28,2.29,2.86,4.49,2.54,1.01-.15,1.59,.53,1.84,1.45,.55,2.02,1.16,4.02,1.59,6.07,1.12,5.32,2.34,10.62,3.19,15.98,.85,5.37,1.3,10.8,1.91,16.2,.25,2.18,.49,4.36,.7,6.54,.3,3.23,.79,6.46,.8,9.69,.01,3.87,.99,7.55,1.62,11.31,.74,4.35,.89,8.72,.38,13.12-.15,1.29-.88,4.32-1.1,4.64Zm-13.25-76.83c-3.51-.69-6.78,.19-10.03,.77-7.46,1.33-14.95,2.05-22.52,2-4.66-.03-9.31-.57-14,.04-4.73,.61-9.51,.84-14.28,1.05-8.01,.36-16.02-.14-23.85-1.72-3.48-.71-7-.7-10.43-1.48-1.1-.25-1.83,.09-2.14,1.28-.9,3.42-2.13,6.77-2.73,10.24-1.29,7.42-2.33,14.89-3.35,22.36-.54,3.97-.98,7.97-1.19,11.98-.46,9.25-.85,18.51-1.06,27.77-.08,3.56,.43,7.13,.67,10.78,.94-.04,1.6-.08,2.25-.1,4.32-.12,8.49-1.15,12.71-1.97,5.06-.98,10.2-1.59,15.28-2.49,7.83-1.39,15.69-2.36,23.65-2.16,5.18,.14,10.32,.02,15.42-1.03,1.68-.34,3.41-.44,5.12-.64,6.93-.8,13.87-1.46,20.77-2.44,2.94-.42,5.79-.94,8.8-.68,2.36,.2,4.76-.19,7.15-.25,1.15-.03,1.77-.59,2.03-1.64,.18-.74,.5-1.5,.46-2.23-.27-4.37-.59-8.74-.97-13.11-.14-1.61-.63-3.19-.76-4.8-.49-6-.97-12-1.31-18.01-.65-11.3-3.17-22.27-5.69-33.53Zm-96.27-6.07c3.23,.67,5.73,1.24,8.24,1.69,2.34,.42,4.71,.67,7.05,1.09,2.14,.39,4.55,.65,7.04,1.15,4.32,.44,2.73,.28,4.32,.44,4.05,0,7.97,.1,11.88-.02,8.02-.26,16-1.27,24.05-.69,2.66,.19,5.37,.23,8.02-.02,5.7-.54,11.38-1.27,17.05-2.01,1.06-.14,2.06-.69,3.13-1.07-1.14-2.99-2.82-5.22-4.98-6.94-4.17-3.34-7.09-7.71-10.32-11.83-.94-1.2-1.77-2.48-2.67-3.7-1.4-1.92-3.04-3.71-4.16-5.77-1.31-2.41-3.04-4.34-5-6.2-3.25-3.09-6.28-6.41-9.51-9.51-3.58-3.43-7.18-6.85-11-10-2.27-1.87-3.45-1.44-5.15,.97-7.19,10.23-14.1,20.66-21.97,30.4-3.72,4.6-7.39,9.25-10.93,13.99-1.75,2.35-3.16,4.96-5.1,8.03Z"/><path d="M73.87,108.09c4.2,0,8.4-.03,12.59,0,4.03,.04,8-1.57,12.06-.43,5.11-1.21,10.24-.34,15.36-.17,.66,.02,1.34,0,1.98-.12,1.97-.4,3.33,.39,3.62,2.3,.11,.74,.14,1.59-.13,2.26-1.56,3.93-1.3,8.06-1.43,12.13-.17,5.25-.11,10.51-.13,15.76,0,.86,0,1.75,.22,2.56,.83,2.88-.07,5.48-1.24,8-.32,.68-1.14,1.33-1.86,1.56-1.45,.45-2.98,.69-4.49,.84-3.79,.39-7.6,.67-11.39,1.02-.56,.05-1.22,.08-1.63,.38-1.06,.79-2.05,.7-3.23,.31-.87-.29-1.88-.3-2.81-.25-6.22,.27-12.42-.05-18.59-.89-2.07-.28-4.12-.83-6.12-1.45-3.91-1.2-5.59-3.75-5.83-8.84-.14-3.04-.33-6.11-.1-9.14,.29-3.87,.99-7.71,1.49-11.57,.28-2.13,.76-4.14-.94-6.18-1.52-1.81,.02-5.23,2.58-6.36,3.18-1.4,6.51-2.19,10.02-1.74Zm15.95,4.89c-7.11,.03-14.22-.66-21.22,1.13-.09,1.31-.08,2.45-.26,3.56-.19,1.22-.63,2.4-.82,3.62-.35,2.36-.68,4.72-.86,7.09-.15,1.94,.27,2.51,2.13,2.69,5.12,.48,10.24,.96,15.37,1.16,2.23,.09,4.49-.53,6.93-.85,0-3.79,.07-7.38-.03-10.97-.06-1.99-.38-3.98-.63-5.96-.06-.44-.35-.86-.61-1.47Zm2.62,36.56c.24-4.59-.26-8.69-.98-13.13-8.42,.3-16.71,.59-25.33,.89,0,1.12,.12,2.26-.02,3.36-.52,4.09,1.94,6.31,5.25,6.99,4.37,.9,8.83,1.4,13.28,1.85,2.45,.25,4.94,.04,7.79,.04Zm20.63-36.4c-5.69-1.2-10.93-1.33-16.43-.08,.99,6.12-1.53,11.98,.27,17.98,4.61,.06,9.09-.04,13.49-1.02,2.09-.46,2.47-1.13,2.5-3.2,.06-3.44,.12-6.88,.18-10.33,.02-1.03,0-2.06,0-3.35Zm-14.68,35.82c3.26-.3,6.18-.56,9.1-.85,.95-.09,1.89-.25,2.83-.4,1.19-.18,1.96-.85,1.98-2.07,.05-3.13,.02-6.26,.02-9.59-4.68-.6-9.14-.53-13.59-.16-.49,.04-1.15,.7-1.32,1.21-.26,.79-.26,1.7-.21,2.55,.12,2.09,.3,4.17,.53,6.25,.1,.93,.39,1.84,.66,3.07Z"/></svg>