<?xml version="1.0" encoding="UTF-8"?><svg id="Layer_1" xmlns="http://www.w3.org/2000/svg" viewBox="0 0 960.8 81.19"><path d="M36.57,31.96l4.25-.72c.56-.09,1.14,.01,1.63,.31,4.89,2.95,9.43,5.97,14.6,8.63,19.33,9.93,41.66,13.02,66.8,9.49,8.7-1.22,16.18-3.45,23-6.59,8-3.68,16.13-7.35,24.92-10.43,6.27-2.2,13.49-3.81,20.72-4.95,7.74-1.22,16.07-.86,23.41,1.37,7.81,2.37,15.42,5.03,22.6,7.95,15.43,6.26,32.15,10.79,50.79,13.04,3.78,.46,7.57,.9,11.36,1.32,19.27,2.13,35.39-2.01,50.72-7.13,11.92-3.99,22.84-8.85,34.91-12.68,8.21-2.61,17.36-4.64,26.6-5.98,11.38-1.64,22.22,.94,32.4,3.87,12.18,3.51,23.91,7.53,36.31,10.75,6.9,1.79,14.69,2.76,22.24,3.46,11.98,1.11,22.77-1.34,32.98-4.13,7.54-2.06,14.35-4.86,21.6-7.24,8.24-2.7,16.23-5.72,24.99-7.83,11.84-2.85,24.47-3.33,37.02-.27,8.74,2.13,17.43,4.35,26.04,6.64,24.32,6.48,48.93,9.48,74.57,3.65,9.43-2.15,18.98-4.14,28.51-6.16,15.94-3.38,31.79-4.11,47.85,.86,16.06,4.97,33.71,7.75,51.24,10.2,9.86,1.38,20.83,1.36,30.91,.65,13.33-.94,26.32-3.08,39.35-4.88,5-.69,9.29,.27,10.38,2.84,.69,1.64,0,2.99-3.17,3.41-22.55,2.98-45.02,6.36-68.83,5.14-5.86-.3-11.78-.99-17.44-1.95-16.52-2.8-32.99-5.7-48.48-10.14-12.89-3.69-25.43-3.13-38.1,.24-18.43,4.89-37.61,9.2-58.61,9.27-18.76,.07-37.04-2.33-53.9-7.68-6.98-2.21-14.43-4.02-21.89-5.71-12.91-2.93-25.49-2.87-37.27,1.29-10.51,3.71-21.09,7.35-31.57,11.08-24.94,8.88-50.95,9.56-78.01,1.63-10.82-3.17-21.5-6.49-32.22-9.77-15.75-4.82-30.89-4.08-45.21,.95-11.27,3.95-22,8.35-33.21,12.36-11,3.93-22.73,7.19-35.42,9.3-13.55,2.25-26.92,.32-40.28-1.54-19.96-2.77-37.97-7.77-54.55-14.52-3.61-1.47-7.53-2.7-11.37-4-14.53-4.91-33.63-4.2-46.21,1.69-6.85,3.21-13.65,6.46-20.6,9.6-23.01,10.41-57.71,11.72-84.88,3.58-11.02-3.3-19.98-7.83-28.43-12.73-1.69-.98-2.97-2.17-4.32-3.53s-.63-3.7,1.28-4.02Z"/></svg>