<?xml version="1.0" encoding="UTF-8"?><svg id="Layer_1" xmlns="http://www.w3.org/2000/svg" viewBox="0 0 1102.13 155.76"><path d="M89.11,117.14c-12.85,1.31-25.71,2.57-38.57,3.84-1.24,.12-2.49,.29-3.72,.24-3.05-.14-6.37-2.49-6.46-4.61-.1-2.49,1.97-3.67,5.03-4,3.2-.35,6.46-.45,9.64-.87,19.21-2.55,38.7-2.98,58.09-4.15,9.95-.6,19.87-1.52,29.76-2.52,12.36-1.25,24.66-2.76,37-4.09,17.53-1.88,35.08-3.66,52.61-5.55,23.71-2.56,47.42-5.08,71.1-7.8,40.95-4.7,81.85-9.66,122.82-14.24,20.24-2.26,40.61-3.9,60.91-5.87,32.91-3.2,65.8-6.54,98.74-9.64,21.79-2.05,43.67-3.62,65.46-5.66,21.04-1.97,41.99-4.48,63.05-6.33,17.47-1.54,34.5-4.24,50.74-9.23,8.71-2.68,17.11-5.91,25.48-9.14,4.21-1.63,6.3-1.84,8.42,.18,2.08,1.98,1.56,4.16-2.14,6.1-3.64,1.92-7.42,3.98-11.58,5.03-14.85,3.73-29.74,7.5-44.91,10.4-10.81,2.07-22.09,2.82-33.18,4.06-15.77,1.77-31.53,3.58-47.34,5.11-7.41,.72-14.97,.54-22.38,1.23-22.29,2.08-44.52,4.46-66.8,6.58-26,2.47-52.07,4.6-78.05,7.22-31.9,3.22-63.74,6.8-95.61,10.22-23.23,2.5-46.5,4.84-69.69,7.55-21.94,2.57-43.78,5.66-65.71,8.27-16.5,1.96-33.09,3.5-49.64,5.24-3.44,.36-6.87,.8-10.38,2.18,3.79,.21,7.58,.62,11.37,.6,19.23-.1,38.45-.46,57.68-.46,27.47,0,54.94,.41,82.41,.34,35.72-.09,71.44-.51,107.17-.71,29.97-.17,59.93-.17,89.9-.32,63.96-.33,127.91-.67,191.86-1.1,29.21-.2,58.42-.87,87.64-.91,27.98-.04,55.96,.54,83.94,.7,30.23,.17,60.45,.1,90.68,.26,10.98,.06,21.96,.6,32.95,.73,4.7,.06,9.42-.49,14.13-.52,3.7-.02,7.51,.03,11.09,.63,3.63,.61,5.38,3.15,4.65,5.48-.74,2.38-3.35,3.01-7.8,2.55-7.62-.8-15.28-1.65-22.95-1.85-19.72-.51-39.46-.8-59.19-.94-32.21-.22-64.42-.4-96.62-.31-36.22,.1-72.44,.55-108.66,.77-28.48,.17-56.97,.16-85.45,.3-44.46,.22-88.92,.56-133.39,.76-47.19,.21-94.38,.26-141.57,.5-27.48,.14-54.95,.65-82.42,.76-21.47,.08-42.95-.26-64.43-.29-8.99-.01-17.99,.57-26.97,.38-22.21-.46-44.4-1.56-66.61-1.72-12.42-.09-24.86,1.09-37.28,1.86-7.71,.48-15.41,1.11-23.05,1.97-2.97,.33-17.2,.33-21.77,.8Z"/></svg>