<?xml version="1.0" encoding="UTF-8"?><svg id="Layer_1" xmlns="http://www.w3.org/2000/svg" viewBox="0 0 690.45 133.39"><path d="M343.42,90.21c-4.21,2.53-8.26,4.08-12.53,5-2.28,.5-4.5,.24-6.65-.75-3.3-1.52-6.58-3.08-9.16-5.84-2.99,1.54-5.87,3.03-8.77,4.52-6.58,3.38-12.24,2.53-17.64-1.31-1.05-.74-1.68-2.07-2.62-3.28-.57,.29-1.11,.55-1.64,.83-3.36,1.78-6.62,3.81-10.11,5.29-6.67,2.83-12.39,.65-17.44-4-.26-.24-.56-.43-1.04-.78-1.23,.88-2.47,1.76-3.7,2.65-3.58,2.58-7.41,3.92-11.73,2.06-3.4-1.46-5.83-3.9-7.06-7.46-.17-.5-.46-.96-.77-1.62-.55,.29-1.03,.47-1.43,.76-6.89,4.92-14.38,8.48-22.74,10.05-4.33,.81-8.3-.18-11.92-2.65-.37-.25-.75-.49-1.13-.72-.06-.03-.17,.02-.5,.08-.36,2.05-.16,4.18,.12,6.29,.6,4.6,1.28,9.18,1.89,13.78,.12,.9,.18,1.82,.1,2.72-.25,2.8-2.31,4.08-4.92,3.15-.86-.31-1.74-.54-2.59-.86-2.3-.87-3.37-2.75-3.63-5.01-.48-4.24-.54-8.53-1.19-12.74-1.12-7.29-.54-14.54,.18-21.77,.58-5.82,2.4-11.44,5.73-16.31,3.24-4.73,7.57-8.01,13.68-8.34,3.67-.2,7.27,.05,10.84,.83,3.24,.71,5.86,2.37,7.84,5.03,.27,.36,.52,.77,.86,1.05,3.13,2.55,2.7,5.64,1.37,8.86-1.56,3.79-4.16,6.79-7.2,9.46-1.97,1.73-3.89,3.5-6.28,5.66,.94-.18,1.3-.19,1.61-.31,4.92-1.98,9.56-4.45,13.42-8.15,4.26-4.08,8.43-8.27,12.69-12.35,1.79-1.72,3.84-3.29,6.4-3.3,3.23-.02,6.51,.17,9.69,.7,2.75,.45,4.4,2.81,6.07,4.82,1.16,1.39,2.33,2.32,4.19,2.69,2.78,.55,4.4,4.76,3.04,7.29-.9,1.68-1.84,3.34-2.69,5.05-.77,1.56-1.24,3.18-.59,5.05,2.82-.32,5.13-1.71,7.33-3.03,3.81-2.28,7.41-4.92,11.08-7.43,1.54-1.05,2.55-2.52,3.42-4.17,3.41-6.44,8.95-9.85,16.05-10.72,3.67-.45,7.04,2.06,8.03,5.55,.37,1.31-.34,2.95-2.22,3.62-1.6,.56-2.91,1.45-4.13,2.45-2.67,2.18-5.31,4.42-7.75,6.85-1.97,1.97-1.91,2.5-1.22,5.82,.3,.02,.68,.15,.97,.05,4.78-1.58,9.2-3.86,13.03-7.16,1-.86,1.8-2.07,2.41-3.27,.6-1.17,1.5-1.71,2.61-1.54,2.05,.32,4.16,.62,6.05,1.41,2.86,1.19,3.74,3.5,3.13,6.74-.25,1.32-.69,2.68,.49,4.24,1.78-.37,3.82-.5,5.62-1.23,3.77-1.52,7.29-3.56,10.7-5.8,1.17-.77,1.76-1.81,1.8-3.18,.04-1.27,.05-2.55,.07-3.82,.11-5.73,.33-11.44,1.89-17.02,1.76-6.31,4.91-11.9,9.08-16.89,1.21-1.45,2.74-2.68,4.31-3.75,1.17-.8,2.59-1.29,4.04-.22,.64,.47,1.47,.7,2.24,.96,4.44,1.55,7.13,6.94,5.79,11.43-.48,1.62-1.29,3.21-.85,5.03,.11,.47-.04,1.19-.35,1.54-1.28,1.46-1.39,3.3-1.83,5.03-.49,1.93-.88,3.83-2.16,5.52-.77,1.01-.84,2.54-1.27,3.82-1.24,3.69-3.52,6.76-5.93,9.72-4.02,4.93-4.05,4.91-3.86,11.23,.11,3.45,.09,6.91,.34,10.35,.21,2.86,.73,5.7,1.15,8.86,6.96-3.04,12.94-6.8,17.49-12.53-3.17-1.34-6.08-2.49-8.91-3.8-2.64-1.22-4.07-3.5-4.81-6.24-.91-3.39-.87-6.63,1.39-9.59,.79-1.03,1.64-1.53,2.98-1.51,4.29,.09,7.93,1.76,11.22,4.35,.57,.45,1.05,1,1.57,1.52,2.67,2.64,3.16,2.82,6.34,.98,2.27-1.31,4.36-2.95,6.49-4.48,1.02-.74,1.44-1.72,1.29-3.07-.17-1.62-.14-3.27-.03-4.9,.34-4.91,2.87-8.7,6.33-11.98,.83-.79,3.36-1.02,4.36-.47,2.34,1.3,4.19,3.16,5.78,5.29,.16,.21,.31,.48,.34,.74,.5,3.85,1.38,7.72,.04,11.56-.29,.83-.84,1.59-1.39,2.29-.84,1.06-1.78,2.04-2.63,3,1.27,3.07,3.42,4.62,6.36,4.04,3.09-.62,6.12-1.63,9.11-2.68,1.7-.59,3.23-1.64,4.88-2.39,1.64-.75,2.36-1.93,2.73-3.72,.73-3.49,2.05-6.75,5.17-8.93,2.83-1.98,7.38-.69,8.69,2.53,.27,.67,.46,1.4,.87,1.98,.68,.98,.55,1.84-.05,2.77-.29,.45-.63,.97-.65,1.48-.12,2.69-.92,5.11-3.08,7.12,2.12,1.58,4.22,2.09,6.38,1.62,2.73-.59,5.52-1.04,7.96-2.65,1.3-.86,2.69-1.42,3.19-3.12,.33-1.15,1.37-1.19,2.24-.73,3.05,1.62,4.13,4.5,4.41,7.68,.23,2.58-1.56,3.98-3.47,5.43-5.26,3.99-11.11,4.78-17.31,3.43-2.36-.51-4.59-1.62-6.84-2.55-.91-.38-1.78-.92-2.56-1.53-1.37-1.06-2.61-.76-4.05-.07-2.61,1.24-5.23,2.52-7.98,3.34-6.18,1.84-12.19,1.38-17.73-2.24-1.44-.94-2.88-1.91-4.21-3-.95-.77-1.8-.93-2.63-.05-2.52,2.67-5.99,3.67-9.16,5.17-1.21,.58-1.91,1.07-1.78,2.58,.34,3.93-1.71,7.08-4.04,9.83-4.69,5.54-10.57,9.64-17.16,12.63-3.4,1.54-6.75,1.34-10.23-.24-3.83-1.73-5.91-4.53-6.95-8.49-1.19-4.54-1.24-9.18-1.65-13.79-.1-1.15-.25-2.3-.42-3.79Zm-128.29-27.15c-3.06-1.44-5.91-1.04-8.72-.26-1.36,.38-2.65,.85-3.74,2.04-3.63,3.95-5.7,8.57-6.59,13.79-.2,1.18-.4,2.36-.68,4.03,2.39-1.7,4.28-3.07,6.19-4.41,1.03-.72,2.19-1.3,3.14-2.12,2.26-1.95,4.58-3.86,6.58-6.06,1.73-1.9,3.49-3.94,3.84-7.01Zm36.31,8.72c-5.19,2.63-6.63,7.49-8.23,12.97,1.23-.56,2.06-.75,2.63-1.23,2.47-2.12,4.97-4.23,7.27-6.54,1.57-1.59,1.41-2.28-.18-3.9-.44-.45-.94-.83-1.48-1.3Zm104.22-14.33c.17,.12,.33,.24,.5,.36,2.2-1.53,2.22-4.03,2.49-6.42-1,2.02-1.99,4.04-2.99,6.07Z"/><path d="M557.5,72.17c-2.09-2.99-4.03-5.51-5.68-8.2-2.38-3.87-3.71-8.08-3.15-12.7,.34-2.79,1.62-4.36,4.38-4.76,4.4-.64,8.83-1.05,13.25-1.46,.66-.06,1.41,.28,2.06,.57,2.28,1.04,3.61,3.1,4.69,5.15,1.27,2.41-.93,4.61-3.94,4.33-2.06-.19-4.14-.11-6.22-.15-.18,0-.36,.02-.54,.05-4.16,.74-5.02,2.67-2.65,6.28,1.34,2.04,2.96,3.9,4.37,5.9,1.25,1.77,2.89,2.08,4.78,1.41,3.75-1.33,7.48-2.73,11.22-4.12,.33-.12,.61-.37,1.11-.7-.27-1.47-.55-2.96-.81-4.45-.36-2.03,.22-2.9,2.26-3.11,1.63-.17,3.27-.1,4.9-.24,4.24-.37,8.47-.8,12.76-1.22,1.06-3.38,1.92-6.62,3.1-9.73,1.95-5.15,5.81-8.93,9.55-12.78,.7-.72,1.4-1.43,2.08-2.16,1.68-1.77,2.41-1.9,4.55-.91,3.8,1.76,5.43,4.89,5.72,8.9,.09,1.26,.36,2.54,.26,3.78-.12,1.51-.26,3.12-.88,4.45-1.06,2.29-2.5,4.4-3.87,6.76,.55,.2,1.02,.52,1.49,.51,3.53-.03,7.06-.15,10.59-.2,2.65-.04,4.76,.87,5.9,3.46,.25,.58,.56,1.18,1,1.61,1.21,1.2,.85,2.46,.25,3.73-.64,1.35-1.89,1.63-3.2,1.62-3.45-.02-6.9-.22-10.34-.11-4.81,.16-9.6,.53-14.4,.86-.69,.05-1.37,.37-2.01,.56,.22,4.71,2.64,9,8.63,15.32,.82-.26,1.79-.46,2.67-.86,1.39-.64,2.77-1.13,4.08-.02,1.54,1.31,3.11,2.76,2.93,4.98-.21,2.64-.88,5.23-2.84,7.17-1.43,1.41-2.5,2.11-4.81,1-4.53-2.2-8.14-5.43-11.07-9.45-1.82-2.49-3.67-4.98-5.14-7.67-1.16-2.13-1.77-4.56-2.62-6.85-.24-.64-.46-1.28-.75-2.07-8.91,5.37-18.61,8.08-28.29,11.78,.43,1.08,.94,2.1,1.24,3.18,.55,2,1.28,4.02,1.39,6.06,.25,4.74-3.61,8.98-8.35,9.51-4.79,.53-9.39-.75-14.02-1.62-1.75-.33-3.41-1.17-5.12-1.72-2.84-.92-3.59-3.17-4.08-5.81-1.01-5.46,1.79-8.93,5.89-11.7,1.64-1.11,3.52-1.84,5.29-2.76,.78-.41,1.53-.88,2.41-1.39Zm-2.91,14.78c3.32,1.37,6.26,1.13,9.09-.45,2.2-1.23,2.4-3.21,.5-5.42-2.7,2.57-7.03,2.52-9.59,5.86Z"/><path d="M111.92,73.83c-2.54,2.42-4.77,4.53-6.98,6.65-.92,.88-1.78,1.82-2.7,2.7-1.39,1.33-2.81,2.77-4.89,2.63-2.76-.19-5.55-.88-7.5-2.86-1.33-1.35-2.04-3.36-2.88-5.15-.73-1.54-1.27-3.18-1.91-4.84-2.15-.27-3.64,1.2-5.38,1.79-2.32,.78-3.85,2.26-4.43,4.95-.57,2.63-1.85,5.1-4.55,6.45-.78,.39-1.37,1.18-2.05,1.78-2.98,2.67-6.49,4.3-10.35,5.17-2.27,.51-4.41,1.41-6.86,1.44-4.3,.05-8.3-.89-12.17-2.55-5.36-2.3-9.4-10.28-7.52-15.44,1.26-3.47,3.18-6.73,5.72-9.47,2.71-2.93,5.65-5.65,8.45-8.49,.55-.56,1.12-1.2,1.41-1.91,1.19-2.93,3.27-4.83,5.71-4.65,2.88,.21,5.25,1.42,6.38,4.33,.13,.33,.31,.64,.46,.93,6.29,.88,10.3,3.49,13.68,9.17,.94-.36,2.01-.6,2.9-1.14,3.49-2.12,6.97-4.26,10.36-6.54,2.95-1.98,6.04-1.96,8.81,.15,3.06,2.33,3.09,2.25,2.25,6.13-.44,2.04-.79,4.1-1.13,6.16-.07,.4,.07,.83,.15,1.66,.79-.7,1.33-1.12,1.81-1.59,3.73-3.61,7.55-7.05,12.28-9.41,2.35-1.17,4.83-1.25,6.84-.36,1.73,.77,4,1.81,4.45,4.28,.54,2.94,1.1,5.88,1.56,8.83,.3,1.91,.78,3.7,2.31,5.33,4.53-2.31,8.59-2.42,11.23,3.01-1.25,2.3-3.7,3.54-5.99,4.94-.3,.19-.75,.16-1.01,.38-2.29,1.85-4.46,.82-6.82,.03-5.36-1.79-8.05-5.92-10.05-10.76-.45-1.08-.89-2.16-1.54-3.73Zm-49.62,5.5c-1.24-.35-2.26-.66-3.29-.92-3.94-1-8.02-1.68-10.69-5.3-.61-.82-1.49-.69-2.02,.19-1.3,2.16-2.59,4.33-3.77,6.56-1.68,3.17,2.04,7.75,5.45,6.95,1.41-.33,2.9-.4,4.25-.87,3.77-1.32,7.36-3,10.06-6.61Zm2.74-9.86c-.36-1.07-.62-2.19-1.12-3.18-.23-.46-.98-1.04-1.41-.97-1.67,.25-3.35,.63-4.94,1.19-.92,.32-1.24,1.25-1,2.27,.23,.98,.79,1.64,1.82,1.73,2.16,.2,4.32,.35,6.64-1.03Z"/><path d="M312.93,28.34c4.3,.3,7.65,1.83,9.19,6.3,.5,1.44,.15,2.29-.73,3.1-2.5,2.29-6.02,2.51-9.03,.68-1.21-.73-2.14-1.62-2.34-3.13-.12-.89-.45-1.75-.68-2.63-.78-2.97,.48-4.49,3.59-4.33Z"/><path d="M405.68,34.06c-.02-3,1.97-4.32,4.44-3.64,2.77,.76,4.74,2.41,6.21,4.82,1.15,1.89,.96,3.56-.78,4.98-3.03,2.46-7.74,1.12-9.11-2.68-.45-1.26-.59-2.64-.77-3.48Z"/><path d="M658.26,85.85c-.02-.99-.17-2.67,1.27-3.44,1.58-.84,3.21-.45,4.85,.53,1.99,1.19,3.21,2.81,4.11,4.86,.82,1.88,.16,3.32-.98,4.73-1.09,1.36-2.46,1.29-3.94,.86-3.94-1.13-5.16-2.75-5.31-7.54Z"/></svg>