<?xml version="1.0" encoding="UTF-8"?><svg id="Layer_1" xmlns="http://www.w3.org/2000/svg" viewBox="0 0 286.52 49.02"><path d="M84.62,22v-6.05c-1-.93-1.79-1.59-2.48-2.34-.21-.23-.32-.77-.2-1.05,.28-.66,.62-1.36,1.13-1.85,.47-.47,1.17-.62,1.87-.22,1.4,.8,2.95,.91,4.51,1.06,1.44,.14,2.87,.4,4.3,.65,.25,.04,.63,.23,.67,.41,.23,1.07,.52,2.17,.52,3.25,0,1-.97,1.25-1.95,1.6-1.03-1.49-2.55-2.09-4.54-1.9,.08,2.24-.65,4.42-.13,6.9,1.58-.32,3.13-.51,4.59-.98,1.96-.62,3.88-1.39,5.77-2.23,.85-.38,1.63-1,2.33-1.64,.92-.85,1.97-1.26,3.19-1.31,1.34-.05,2.68-.03,4.01-.12,2.63-.17,4.78,.93,6.75,2.5,.61,.49,1.17,1.05,1.75,1.58,1.73,1.56,1.8,4.31,.15,6.01-1.61,1.67-3.64,2.74-5.84,3.13-2.99,.53-5.94-.1-8.32-2.07-.88-.73-1.28-2.06-1.82-3.16-.34-.7-.53-1.47-.81-2.3-1.27,.54-2.47,1.07-3.68,1.55-1.44,.57-2.89,1.11-4.34,1.66-.94,.35-1.89,.68-2.83,1.04-.76,.29-1.18,.81-1.08,1.68,.1,.83,.13,1.67,.22,2.5,.05,.44,.19,.88,.24,1.32,.1,.93-.47,1.95-1.2,2.21-.62,.22-1.8-.19-2.2-.91-.55-.98-.98-2.01-.5-3.2,.17-.4,.19-.87,.25-1.3,.11-.78-.24-1.35-.99-1.52-.8-.18-1.19-.72-1.61-1.33-1.17-1.69-.56-3.17,1.47-3.49,.22-.03,.44-.05,.81-.09Zm29.77,1.13c-.26-.28-.55-.53-.77-.84-1.44-1.98-3.57-2.56-5.83-2.78-1.64-.16-2.96,.73-3.56,2.25-.25,.62-.21,1.08,.26,1.67,1.61,2.01,3.69,2.73,6.11,2.26,1.52-.29,3.06-.83,3.79-2.56Z"/><path d="M59.69,17.29c1.39-2.14,3.06-3.77,5.01-5.11,1.38-.95,3.01-1.22,4.63-1.33,1.32-.1,2,.54,2.4,1.86,.61,1.97,.21,3.75-1.02,5.37-.57,.75-1.17,1.49-1.79,2.2-.83,.96-1.7,1.88-2.6,2.88,.31,1,1.26,1.19,2.13,1.16,1.38-.05,2.76-.31,4.13-.52,.66-.1,1.32-.43,1.96-.39,.48,.03,1.05,.38,1.36,.77,.15,.19-.11,.84-.34,1.17-1,1.41-2.45,2.23-4.11,2.36-2.17,.17-4.37,.19-6.53-.02-1.16-.11-2.26-.84-3.47-1.33-.51,.94-.16,2.07-.12,3.15,.04,1,.27,1.99,.4,2.99,.19,1.5-1.08,3.01-2.54,2.94-.39-.02-.94-.28-1.13-.6-.5-.85-1.12-1.77-1.19-2.7-.14-1.88,.02-3.79,.13-5.68,.13-2.2,.22-4.36-1.1-6.3-.27-.4-.36-.93-.51-1.41-.46-1.48-.16-2.25,1.11-2.89,1.06-.53,1.99-.21,2.81,.96,.1,.14,.2,.27,.38,.5Zm2.66,3.85c2.9-1.43,4.51-3.77,6.22-6.13-2.1-.88-5.64,2.92-6.22,6.13Z"/><path d="M125.4,17.92c.86-.7,1.85-1.3,2.56-2.13,1.81-2.13,4.27-2.97,6.84-3.48,.88-.18,1.98,.19,2.84,.6,.58,.28,1.03,1.02,1.31,1.65,.23,.51,.21,1.19,.13,1.77-.36,2.62-2.34,3.93-4.34,5.22-1.12,.72-2.22,1.48-3.3,2.2,.36,1.21,1.14,1.73,2.22,1.91,.38,.07,.78,.16,1.12,.34,1.02,.56,2.05,.45,3.07,.08,.63-.23,1.21-.58,1.82-.85,1.34-.61,2.07-.12,2.01,1.32-.05,1.31-.69,2.07-2,2.56-3.54,1.33-6.81,.49-10-1.13-.54-.27-1.05-.6-1.73-.99-.18,.49-.34,.81-.41,1.15-.05,.27,.06,.56,.03,.83-.08,.99-.76,1.99-1.41,2.11-.98,.19-2.21-.41-2.63-1.41-.25-.6-.37-1.29-.43-1.94-.14-1.66-.08-3.36-.34-5-.31-1.92-.77-3.83-1.36-5.68-.39-1.25,.07-2.88,1.2-3.52,.76-.43,1.2-.44,1.71,.3,.33,.49,.55,1.09,.69,1.66,.21,.86,.3,1.75,.41,2.41Zm9.56-1.45c-2.89-.03-4.3,.89-5.41,3.29,2.03-.57,3.75-1.51,5.41-3.29Z"/><path d="M157.29,26.1c2.01-.61,2.83-2.29,3.42-4.01,.47-1.4,.58-2.92,.81-4.4,.18-1.16,1.26-2.34,2.45-2.42,.42-.03,1.05,.21,1.26,.54,.7,1.09,1.02,2.24,.85,3.64-.21,1.7-.05,3.45,.05,5.18,.08,1.33,.25,2.64,1.34,3.68,.67,.64,.41,1.96-.29,2.76-1.4,1.6-3.04,1.36-3.86-.67-.41-1.02-.56-2.15-.87-3.41-.38,.32-.64,.56-.91,.79-.73,.6-1.41,1.27-2.2,1.77-1.78,1.14-4.14,.74-5.36-.93-.75-1.01-1.35-2.14-2.11-3.35-.34,.59-.47,1.26-.58,1.92-.22,1.44-.41,2.88-.64,4.32-.26,1.65-1.67,2.6-2.97,2.04-.78-.34-1.65-2.12-1.37-3.04,.75-2.42,.82-4.93,1.12-7.41,.24-2,.63-3.98,1.05-5.94,.12-.55,.51-1.14,.95-1.5,.32-.26,1.06-.4,1.37-.21,1.6,1.01,3.16,2.08,3.38,4.26,.11,1.11,.43,2.19,.67,3.28,.3,1.41,1.22,2.34,2.43,3.11Z"/><path d="M44.8,30.84c-.22,.9-.43,1.83-.67,2.74-.07,.26-.16,.56-.34,.74-1.23,1.2-2.65,2.18-4.39,2.25-2.64,.11-5.12-.54-7.1-2.43-.35-.33-.58-.82-.75-1.27-.19-.52-.37-1.09-.35-1.64,.07-1.59-.7-2.66-1.82-3.71-1.34-1.25-.87-2.85,.87-3.53,1.44-.56,1.59-1.21,.62-2.45-.74-.95-1.44-1.93-2.17-2.92,.53-.63,.88-1.14,1.33-1.54,.36-.32,.86-.7,1.29-.69,2.4,.05,4.56-.85,6.78-1.52,1.57-.47,2.01-.38,2.51,.71,.52,1.15,.25,2.15-.93,2.81-.77,.43-1.62,.73-2.47,.96-.99,.27-1.55,.8-1.66,1.84-.09,.82-.28,1.62-.45,2.53,1.69,.15,3.11-.4,4.55-.74,1.14-.27,2.23-.74,3.37-1.02,1.06-.26,1.91-.8,2.83-1.37,1.27-.8,2.7-1.64,4.41-.71-.06,.3-.03,.64-.19,.81-1.2,1.25-2.38,2.51-4.04,3.19-1.14,.47-2.24,1.03-3.38,1.48-.77,.31-1.6,.47-2.37,.78-.91,.37-1.76,1.07-2.69,1.17-1.04,.11-1.95,.36-2.86,.89-.07,.99-.45,1.96,.22,2.92,.85,1.22,3.22,2.11,4.65,1.5,.96-.41,1.83-1.05,2.69-1.65,1.17-.81,1.36-.86,2.53-.14Z"/><path d="M242.18,24.15c.09,1.86,1.35,3.21,2.93,3.2,2.4,0,4.8-.08,7.06-1.1,.6-.27,1.29-.42,1.95-.47,1.21-.09,1.77,.82,1.17,1.86-.24,.42-.58,.93-.99,1.1-1.7,.68-3.41,1.39-5.18,1.83-1.78,.44-3.64,.54-5.46,.84-1.46,.24-2.83-.32-3.55-1.57-1.4-2.4-1.75-5.04-1.76-7.76,0-.62,.11-1.25,.01-1.85-.38-2.42,.43-4.62,1.17-6.83,.15-.45,.53-.84,.83-1.23,.49-.63,1.09-.78,1.74-.25,1.11,.9,2.48,.99,3.79,1.22,1.69,.29,3.41,.45,5.1,.76,.63,.12,1.29,.4,1.8,.8,.45,.35,1.03,.94,.57,1.58-.36,.5-.97,1-1.54,1.11-.86,.16-1.78-.03-2.68-.08-1.62-.08-3.23-.17-4.85-.2-.36,0-.88,.12-1.04,.37-.25,.38-.41,.98-.29,1.39,.09,.29,.72,.6,1.09,.57,1.34-.11,2.66-.39,3.99-.55,.54-.06,1.14-.12,1.63,.05,1.21,.42,1.46,1.53,.66,2.53-.63,.78-1.42,1.16-2.43,1.34-1.9,.35-3.76,.87-5.72,1.34Z"/><path d="M209.05,22.57c.31-1.2,.56-2.15,.79-3.11,.54-2.28,1.04-4.57,1.61-6.84,.13-.52,.44-1.03,.8-1.43,.5-.55,1.55-.5,1.93,.1,.56,.89,1.14,1.8,.7,2.97-.43,1.15-.86,2.32-1.12,3.52-.3,1.35-.36,2.76-.62,4.12-.39,2.07-.66,4.19-2.18,5.87-.64,.72-1.33,.84-2.09,.42-.67-.37-1.41-.79-1.85-1.38-1.44-1.98-2.92-3.96-3.02-6.58-.01-.35-.4-.7-.62-1.04-.33,.25-.83,.44-.97,.77-.62,1.44-1.11,2.92-1.69,4.38-.48,1.18-.92,2.4-1.55,3.5-.65,1.14-1.64,1.22-2.69,.41-1.4-1.06-1.63-2.95-.43-4.26,1.11-1.22,1.82-2.63,2.31-4.18,.12-.37,.28-.74,.49-1.06,1.15-1.78,2.27-3.58,3.5-5.29,.98-1.38,1.94-1.33,2.95-.02,.73,.94,1.16,1.95,1.39,3.17,.32,1.73,.99,3.41,1.55,5.09,.09,.26,.4,.45,.81,.88Z"/><path d="M186.52,20.13c.79-.18,1.33-.33,1.88-.43,.92-.15,1.71,.2,2.01,.85,.28,.61-.05,1.38-.96,1.92-.71,.43-1.5,.74-2.33,1.13,0,1.27,.09,2.5,.61,3.73,.3,.73,.39,1.64,.28,2.42-.14,.92-1.4,1.73-2.11,1.61-.87-.15-1.71-1.2-1.8-2.18-.1-1.17-.21-2.34-.35-3.51-.04-.31-.22-.61-.4-1.11-.59,.25-1.15,.37-1.55,.69-1.06,.83-2.27,1.32-3.56,1.34-1.37,.02-1.8,.83-2.24,1.86-.34,.81-.74,1.63-1.28,2.32-.66,.86-1.22,.87-2.2,.33-1.08-.59-1.57-1.36-1.27-2.26,.37-1.11,.78-2.17,1.6-3.1,.95-1.08,1.72-2.34,2.43-3.6,.71-1.26,1.79-2.29,2.09-3.81,.11-.55,.87-.96,1.33-1.45,.84-.9,1.62-1.84,2.5-2.69,1.26-1.23,2.91-1.02,3.81,.51,.41,.71,.66,1.53,.87,2.34,.26,.96,.41,1.95,.63,3.09Zm-6.46,1.41c.91-.1,1.67-.11,2.38-.3,.57-.15,.85-1.05,.47-1.54-.22-.28-.83-.59-1.06-.48-.83,.41-1.56,1-1.78,2.31Z"/><path d="M14.26,28.96c.16,1.4,.28,2.73,.48,4.05,.16,1.04,.45,2.06,.64,3.1,.17,.92-.44,2.34-1.1,2.65-1.34,.63-2.46,.44-3.26-.71-.27-.39-.41-1.09-.27-1.53,.75-2.34,.65-4.75,.7-7.14,.02-.85-.49-1.7-.49-2.55,0-.8,.56-1.62,.51-2.41-.14-2.06-.4-4.12-.77-6.16-.29-1.54,.04-2.52,1.56-2.97,1.61-.48,3.25-.86,4.91-1.11,1.21-.19,2.48-.25,3.69-.1,2.49,.31,3.25,1.24,3.34,3.36,.12,2.78-1.12,4.91-2.9,6.7-2,2.01-4.3,3.73-7.05,4.83Zm.39-4.19c1.32-1.03,2.55-1.88,3.65-2.88,.82-.74,1.52-1.63,2.15-2.54,.47-.68,.26-1.13-.52-1.39-.42-.14-.89-.28-1.31-.21-1.59,.26-3.15,.65-4.6,1.52,.08,.92,.17,1.75,.22,2.58,.05,.86-.38,1.77,.41,2.93Z"/><path d="M261.98,27.02c.52-.91,1.09-1.26,2.21-1,1.72,.41,3.47,.55,5.25-.17,1.12-.45,2.45-.39,3.17-1.73-.15-1.1-1.18-1.65-1.81-2.46-.65-.83-1.39-1.59-2.1-2.38-.97-1.08-1.94-2.16-2.92-3.24-1.19-1.31-1.4-2.34-.74-3.64,.73-1.44,1.2-1.69,2.81-1.45,2.08,.3,2.91,1.47,2.36,3.49-.16,.6-.01,.99,.37,1.34,1.66,1.51,2.6,3.59,4.27,5.15,2.79,2.62,1.96,5.75-1.25,7.57-1.95,1.11-4.13,1.42-6.34,1.32-1.03-.04-2.03-.48-3.06-.61-1.35-.18-1.83-1.12-2.23-2.2Z"/><path d="M236.28,24.8c-.01,1.3-.66,2.01-1.59,2.52-2.07,1.15-4.28,2.05-6.63,2.22-2.67,.19-5.91-.67-7.18-3.53-.33-.75-.6-1.61-.58-2.4,.06-2.12,.22-4.28,1.12-6.24,1.15-2.52,3.12-4.16,5.85-4.75,.94-.21,2.57,.86,2.81,1.74,.13,.48-.75,1.92-1.42,2.3-.29,.16-.6,.35-.92,.39-1.82,.21-2.57,1.58-3.37,2.96-.83,1.41-.72,2.78,0,4.14,.84,1.58,2.42,1.72,3.92,1.71,1.62-.01,3.2-.33,4.68-1.13,1.02-.55,2.14-.55,3.31,.09Z"/></svg>