<?xml version="1.0" encoding="UTF-8"?><svg id="Layer_1" xmlns="http://www.w3.org/2000/svg" viewBox="0 0 85.8 147.58"><path d="M35.62,72.69c2.42,.46,4.37,1.06,6.34,1.16,6.4,.33,12.8,.48,19.2,.7,.32,.01,.64,.01,.96,.05,4.2,.48,4.47,.98,3.88,5.22-.25,1.83-1.25,2.36-2.76,2.43-4.46,.21-8.92,.33-13.37,.57-1.47,.08-2.94,.4-4.4,.69-3.98,.79-7.98,1.51-11.92,2.49-2.03,.51-3.94,1.53-6.29,2.48,.7,1.43,1.11,2.62,1.81,3.61,1.04,1.48,2.24,2.86,3.44,4.22,5.66,6.39,11.39,12.72,16.98,19.17,1.59,1.84,2.67,4.12,4.17,6.06,1.17,1.51,2.57,2.84,3.96,4.16,1.61,1.53,1.93,2.41,1.13,4.48-.56,1.45-1.26,2.84-1.92,4.33-3.19-1.98-5.31-4.15-6.8-7.35-2.95-6.36-7.8-11.44-12.58-16.5-3.59-3.79-7.37-7.42-10.72-11.41-2.45-2.92-4.48-6.22-6.44-9.51-1.25-2.09-.69-3.65,1.53-4.76,3.71-1.85,7.52-3.5,11.26-5.22-.99-.47-2.32-.92-3.45-1.66-2.09-1.38-2.59-2.99-1.34-5.15,1.64-2.85,3.42-5.65,5.41-8.27,2.64-3.48,5.54-6.75,8.66-10.52-1.16,.16-2.05,.15-2.85,.41-6.22,2.04-12.23,4.52-17.46,8.54-1.31,1.01-2.56,1.49-4.1,.64-1.62-.89-2.16-2.4-2.02-4.06,.15-1.8,.71-3.56,.92-5.36,1-8.6,2.14-17.19,2.83-25.81,.33-4.12-.24-8.3-.32-12.46-.02-1.13,0-2.36,.42-3.38,.68-1.66,2.38-2.53,3.85-2.35,1.29,.16,2.71,1.68,2.77,3.5,.11,3.19,.19,6.42-.15,9.58-.64,5.93-1.65,11.83-2.38,17.75-.54,4.32-.88,8.67-1.34,13.37,1-.15,1.74-.1,2.32-.38,6.55-3.17,13.3-5.7,20.45-7.16,1.98-.4,3.86-1.29,5.83-1.72,2.7-.59,3.59,.55,3.38,3.33-.22,2.99-1.99,4.75-4.02,6.59-5.16,4.66-10.03,9.61-13.93,15.41-.28,.42-.43,.94-.95,2.1Z"/></svg>