<?xml version="1.0" encoding="UTF-8"?><svg id="Layer_1" xmlns="http://www.w3.org/2000/svg" viewBox="0 0 144.84 122.77"><path d="M86.43,74.5c-.92,.63-2.03,1.09-2.74,1.91-2.71,3.12-5.21,6.42-7.95,9.52-1.54,1.74-3.47,3.13-5.08,4.81-2.43,2.53-4.68,5.23-7.11,7.76-1.33,1.38-2.87,2.56-4.21,3.73-4.14-1.78-4.62-3.25-1.79-5.89,10.04-9.34,18.67-19.88,26.36-31.17,6.14-9.01,11.8-18.33,17.66-27.53,.1-.15-.04-.46-.1-1.01-2.41,2.54-4.8,4.84-6.92,7.36-6.69,7.94-13.35,15.92-19.9,23.98-7.14,8.79-14.84,17.03-23.3,24.57-1.24,1.1-2.16,2.57-3.18,3.91-2.53,3.32-5.39,6.29-8.82,8.54-.58-.17-.99-.2-1.3-.41-2.89-1.94-3.05-2.58-.94-5.16,2.38-2.91,4.98-5.65,7.28-8.62,10.57-13.66,21.24-27.24,29.85-42.31,3.6-6.3,7.83-12.24,11.74-18.37,1.02-1.6,1.89-3.29,2.24-5.36-2.42,2.77-5.08,5.37-7.22,8.34-6.99,9.69-13.71,19.57-20.71,29.26-6.24,8.63-12.56,17.2-19.12,25.58-4.71,6.02-9.86,11.7-14.86,17.5-.75,.87-1.64,1.71-2.63,2.28-1.43,.83-3,.4-3.77-.9-.47-.79-.35-2.27,.08-3.16,.54-1.12,1.6-2.02,2.55-2.9,14.62-13.6,25.4-30.15,36.07-46.79,2.52-3.93,4.83-8,6.96-12.24-1.37,.61-1.98,1.95-2.77,3.09-4.8,6.94-9.57,13.91-14.35,20.86-.29,.43-.61,.84-.94,1.25-5.44,6.77-10.89,13.53-16.31,20.32-1.13,1.41-2.09,2.97-3.26,4.35-.74,.88-1.67,1.62-2.61,2.31-1.26,.92-2.45,.56-3.5-.47-1-.99-1.01-2.11-.22-3.16,1.17-1.55,2.33-3.15,3.69-4.52,5.93-5.94,10.2-13.09,14.7-20.07,.35-.54,.61-1.15,.84-1.75,.07-.19-.07-.47-.2-1.16-6.16,5.82-12.13,11.48-17.97,16.99-4.28-1.47-4.71-2.28-2.7-5.55,3.61-5.86,7.44-11.58,11.06-17.44,2.66-4.3,5.08-8.74,7.69-13.06,2.95-4.88,6.02-9.7,9.01-14.56,.82-1.32,1.47-2.75,2.34-4.03,.71-1.04,1.78-1.62,3.03-.84,1.26,.79,2.41,1.83,1.55,3.49-1.14,2.19-2.46,4.28-3.72,6.4-.2,.33-.61,.56-.74,.9-2.36,6.39-7.84,10.76-10.77,16.86-2.11,4.39-5.31,8.27-8.02,12.38-.33,.5-.62,1.01-.67,1.75,3.83-2.64,7.15-5.76,10.18-9.24,7.44-8.55,13.68-17.96,19.98-27.34,1.59-2.37,3.01-4.85,4.54-7.26,.8-1.27,1.78-2.37,3.48-1.55,1.31,.63,1.68,2.77,.65,4.48-1.34,2.21-2.85,4.33-4.34,6.45-3.07,4.34-6.36,8.55-9.21,13.03-1.33,2.09-1.85,4.7-3.05,7.89,1.03-1.32,1.58-1.95,2.05-2.63,3.96-5.79,7.94-11.57,11.85-17.39,4.74-7.04,10.33-13.35,16.21-19.42,.18-.19,.32-.49,.53-.55,1.04-.3,2.09-.53,3.14-.78,.27,1.18,1.05,2.55,.7,3.52-.64,1.79-1.88,3.39-2.98,4.99-1.6,2.34-3.31,4.6-4.97,6.9,.18,.19,.35,.37,.53,.56,.66-.6,1.34-1.18,1.98-1.79,.66-.63,1.25-1.32,1.92-1.94,2.38-2.2,4.75-4.42,7.2-6.55,.77-.67,1.73-1.3,2.69-1.5,.89-.18,2.12-.01,2.79,.52,.43,.34,.42,1.76,.1,2.45-1.66,3.51-3.31,7.06-5.31,10.39-4.93,8.24-10.02,16.4-15.11,24.54-4.46,7.14-9.03,14.21-13.75,21.63,1.49-.73,2.21-1.92,3.05-2.92,7.8-9.22,15.73-18.34,23.32-27.72,4.51-5.57,8.96-11.14,14.65-15.57,1.12-.88,2.23-1.82,3.48-2.47,.81-.42,2.1-.81,2.76-.45,1.19,.65,1.64,2.07,.96,3.4-1.23,2.42-2.52,4.82-3.9,7.15-3.18,5.36-6.43,10.67-9.64,16.01-.25,.41-.41,.88-1.02,2.2,2.19-1.3,2.94-2.77,4-3.9,4.51-4.85,9.02-9.7,13.58-14.5,1.05-1.1,2.19-2.47,3.99-1.45,1.55,.88,1.72,2.64,.32,4.74-3.29,4.95-6.68,9.84-10.05,14.74-2.64,3.84-5.22,7.73-7.96,11.49-1.2,1.64-2.74,3.02-4.13,4.52,.18,.24,.35,.49,.53,.73,1.28-.84,2.56-1.67,3.83-2.53,5.59-3.79,11.17-7.59,16.75-11.38,.64-.44,1.26-.96,1.98-1.22,1.64-.58,3.54,.2,3.94,1.48,.56,1.78-.47,4.3-2.2,4.37-6.66,.25-11,4.87-15.98,8.2-4.3,2.87-8.53,5.93-12.44,9.3-3.32,2.86-6.04,6.42-9.25,9.43-2.23,2.1-4.78,3.9-7.34,5.58-.56,.37-2.03-.07-2.71-.6-1.11-.86-1.35-2.25-.49-3.49,.51-.73,1.33-1.23,1.94-1.9,3.35-3.62,6.74-7.22,9.99-10.93,.81-.92,1.21-2.21,1.8-3.33,.91-.94,1.82-1.87,2.73-2.81-.25-.17-.49-.34-.74-.51-.64,1.13-1.27,2.26-1.91,3.39Zm11.39-13.16c-.21-.15-.42-.31-.63-.46-1.39,1.43-2.91,2.75-3.18,5,1.27-1.51,2.54-3.03,3.81-4.54Z"/></svg>