<?xml version="1.0" encoding="UTF-8"?><svg id="Layer_1" xmlns="http://www.w3.org/2000/svg" viewBox="0 0 122.74 150.46"><path d="M77.19,66.59c4.7,4.56,9.08,8.78,13.44,13.04,2.78,2.72,5.55,5.47,8.28,8.27,1.42,1.46,1.37,1.53,.61,6.58-6.88,1.42-12.52-2.6-18.23-6.41-2.28,.58-2.8,2.84-3.19,5.03-1.84,10.29-3.61,20.61-5.4,30.91-.5,2.86-.99,5.73-1.51,8.72-4.39-2.27-4.89-3.64-5.15-8.08-.42-7.22-1.24-14.4-1.97-22.48-9.4,4.79-15.46,13.89-23.04,20.25q-3.13-5.21-.83-9.26c3.18-5.52,6.39-11.02,9.83-16.95-1.45-.14-2.78-.44-4.09-.37-4.52,.24-9.05,.55-13.56,.95-1.7,.15-3.38,.65-5.07,.97-1.71,.33-3.17-.16-3.82-2.25-.67-2.15,.4-4.49,2.44-5.26,1.33-.5,2.78-.54,4.14-.93,2.59-.74,5.17-1.53,7.73-2.39,1-.34,1.94-.95,3.58-1.78-2.2-1.62-3.94-2.76-5.55-4.1-5.64-4.69-11.27-9.42-16.84-14.23-1.18-1.02-1.9-2.48-1.09-4.43,.8-1.92,2.06-2.88,3.78-2.6,1.06,.17,2.07,.83,3.12,1.19,5.26,1.8,10.52,3.61,15.8,5.34,1.01,.33,2.09,.3,3.45,.48,.09-1.78,.3-3.25,.22-4.7-.33-6.01-.98-12-1.08-18.01-.11-6.39,.23-12.79,.42-19.18,.02-.73,.23-1.49,.47-2.17,1.32-3.6,3.86-3.98,5.63-.64,1.68,3.16,3.08,6.55,4.47,9.92,2.29,5.57,4.44,11.22,6.71,16.81,.54,1.32,1.33,2.5,2.25,4.19,3.82-1.77,7.59-3.45,11.32-5.26,6.09-2.96,12.14-6.02,18.21-9.03,.58-.29,1.17-.76,1.76-.75,1.01,.01,2.57-.06,2.9,.61,.54,1.11,.61,2.92,.25,4.17-.31,1.07-1.39,2-2.31,2.6-7.47,4.93-12.75,12.5-18.07,21.22Zm5.84-16.27l-.45-1.09c-5.72,3.32-11.49,6.51-17.14,9.99-3.3,2.03-4.56,1.87-6.42-1.98-.94-1.95-1.7-4.02-2.56-6.02-2.41-5.56-4.84-11.11-7.26-16.66-.85,1.57-1.04,2.83-.97,4.06,.56,10.11,.28,20.32,2.72,30.21,.43,1.74,.32,4.69-.58,5.61-.95,.97-3.15,.27-4.79,.12-.58-.05-1.1-.68-1.68-.97-4.42-2.19-9-3.43-13.89-3.29,5.56,4.47,10.76,9.59,17.35,11.72,1.83,.59,3.05,1.55,3.42,3.95,.19,1.24,.8,2.39,1.18,3.46,.46,.16,.76,.37,1.05,.35,2.3-.12,3.95,1.02,4.78,3.63,.93,2.92-.68,4.5-2.28,6.15-1.06,1.1-2.05,2.34-2.96,3.62-.9,1.28-1.66,2.69-2.48,4.05,4.12-4.88,8.56-8.93,13.81-11.7,3.73-1.97,4.99-1.1,5.45,3.9,.24,2.64,.57,5.28,.87,7.91,.77-3.52,.82-7.13,1.51-10.55,.8-3.97,1.8-7.99,3.36-11.59,1.54-3.57,3.05-3.69,6.12-1.96,2.61,1.47,5.24,2.88,7.87,4.32,.18-.29,.37-.58,.55-.87-1.16-1.35-2.22-2.87-3.5-4.03-2.99-2.71-6.14-5.18-9.13-7.9-1.47-1.34-2.95-2.82-4.03-4.59-1.37-2.25-1.68-4.49,.41-6.95,3.43-4.05,6.47-8.58,9.68-12.9Z"/></svg>